<svg width="48" height="48" viewBox="0 0 48 48" fill="none" xmlns="http://www.w3.org/2000/svg">
<path d="M23.8542 12.2712C24.8925 12.2712 25.9075 11.9633 26.7709 11.3865C27.6343 10.8096 28.3072 9.98964 28.7045 9.03033C29.1019 8.07102 29.2059 7.01542 29.0033 5.99702C28.8007 4.97862 28.3007 4.04316 27.5665 3.30893C26.8322 2.57471 25.8968 2.07469 24.8784 1.87212C23.86 1.66955 22.8044 1.77351 21.8451 2.17087C20.8858 2.56824 20.0658 3.24114 19.4889 4.1045C18.9121 4.96786 18.6042 5.98289 18.6042 7.02124C18.6042 8.41363 19.1573 9.74899 20.1419 10.7336C21.1264 11.7181 22.4618 12.2712 23.8542 12.2712ZM23.8542 3.27124C24.5958 3.27124 25.3209 3.49118 25.9375 3.90323C26.5542 4.31529 27.0349 4.90096 27.3187 5.58618C27.6025 6.2714 27.6768 7.0254 27.5321 7.75283C27.3874 8.48026 27.0303 9.14845 26.5058 9.67289C25.9814 10.1973 25.3132 10.5545 24.5858 10.6992C23.8583 10.8439 23.1043 10.7696 22.4191 10.4858C21.7339 10.202 21.1482 9.72131 20.7361 9.10463C20.3241 8.48795 20.1042 7.76292 20.1042 7.02124C20.1042 6.02668 20.4992 5.07285 21.2025 4.36959C21.9058 3.66633 22.8596 3.27124 23.8542 3.27124ZM40.2454 25.1675L31.761 15.5487C31.2684 14.9901 30.6625 14.5427 29.9836 14.2362C29.3047 13.9297 28.5684 13.7712 27.8235 13.7712H19.8848C19.1399 13.7712 18.4036 13.9297 17.7247 14.2362C17.0458 14.5427 16.44 14.9901 15.9473 15.5487L7.46291 25.1675C6.91199 25.7312 6.60504 26.489 6.60843 27.2772C6.61181 28.0654 6.92525 28.8206 7.48099 29.3796C8.03673 29.9385 8.79012 30.2563 9.57828 30.2642C10.3664 30.2721 11.1261 29.9695 11.6929 29.4219L16.5417 25.5275L12.8479 39.5675C12.5266 40.2889 12.5026 41.108 12.7814 41.8469C13.0601 42.5859 13.6189 43.1851 14.3367 43.5146C15.0544 43.8441 15.8732 43.8773 16.6152 43.607C17.3573 43.3366 17.9628 42.7846 18.3004 42.0706L23.8542 32.5212L29.4004 42.0837C29.738 42.7977 30.3435 43.3498 31.0856 43.6201C31.8277 43.8904 32.6464 43.8573 33.3641 43.5278C34.0819 43.1982 34.6408 42.599 34.9195 41.8601C35.1982 41.1211 35.1743 40.302 34.8529 39.5806L31.1667 25.5275L36.0229 29.4219C36.5898 29.9695 37.3494 30.2721 38.1375 30.2642C38.9257 30.2563 39.6791 29.9385 40.2348 29.3796C40.7906 28.8206 41.104 28.0654 41.1074 27.2772C41.1108 26.489 40.8038 25.7312 40.2529 25.1675H40.2454ZM39.1654 28.3306C38.8841 28.6117 38.5028 28.7696 38.1051 28.7696C37.7074 28.7696 37.3261 28.6117 37.0448 28.3306C37.0255 28.3111 37.0048 28.2929 36.9829 28.2762L30.3248 22.9362C30.2018 22.8371 30.0507 22.7793 29.893 22.771C29.7353 22.7628 29.5789 22.8046 29.4463 22.8904C29.3138 22.9762 29.2116 23.1017 29.1546 23.249C29.0975 23.3963 29.0884 23.5578 29.1285 23.7106L33.4167 40.01C33.428 40.0531 33.4431 40.0951 33.4617 40.1356C33.5482 40.3146 33.5984 40.5089 33.6091 40.7074C33.6199 40.9059 33.5912 41.1046 33.5245 41.2919C33.4578 41.4791 33.3546 41.6513 33.2208 41.7983C33.087 41.9454 32.9253 42.0643 32.7452 42.1483C32.565 42.2323 32.3699 42.2797 32.1713 42.2876C31.9727 42.2956 31.7744 42.2639 31.5881 42.1946C31.4018 42.1253 31.2312 42.0196 31.0861 41.8837C30.941 41.7478 30.8243 41.5845 30.7429 41.4031C30.7335 41.3825 30.7223 41.3637 30.711 41.3431L24.5029 30.6462C24.437 30.5326 24.3424 30.4382 24.2285 30.3727C24.1146 30.3071 23.9856 30.2726 23.8542 30.2726C23.7228 30.2726 23.5937 30.3071 23.4798 30.3727C23.366 30.4382 23.2713 30.5326 23.2054 30.6462L16.9954 41.3431C16.9842 41.3637 16.9729 41.3825 16.9635 41.4031C16.8821 41.5845 16.7655 41.7478 16.6204 41.8837C16.4753 42.0196 16.3046 42.1253 16.1183 42.1946C15.932 42.2639 15.7338 42.2956 15.5351 42.2876C15.3365 42.2797 15.1414 42.2323 14.9613 42.1483C14.7811 42.0643 14.6194 41.9454 14.4856 41.7983C14.3519 41.6513 14.2486 41.4791 14.182 41.2919C14.1153 41.1046 14.0865 40.9059 14.0973 40.7074C14.1081 40.5089 14.1582 40.3146 14.2448 40.1356C14.2634 40.0951 14.2784 40.0531 14.2898 40.01L18.5798 23.7087C18.6199 23.556 18.6108 23.3944 18.5538 23.2472C18.4967 23.0999 18.3946 22.9744 18.262 22.8885C18.1294 22.8027 17.9731 22.7609 17.8153 22.7691C17.6576 22.7774 17.5065 22.8352 17.3835 22.9344L10.7292 28.2762C10.7073 28.2929 10.6866 28.3111 10.6673 28.3306C10.3837 28.6 10.0061 28.748 9.61493 28.743C9.22378 28.738 8.85007 28.5804 8.57347 28.3038C8.29687 28.0272 8.13926 27.6535 8.13425 27.2624C8.12924 26.8712 8.27723 26.4936 8.54666 26.21L8.57854 26.1762L17.0723 16.5406C17.4242 16.1416 17.857 15.8221 18.3419 15.6032C18.8268 15.3844 19.3528 15.2712 19.8848 15.2712H27.8235C28.3556 15.2712 28.8815 15.3844 29.3664 15.6032C29.8513 15.8221 30.2841 16.1416 30.636 16.5406L39.1335 26.1762L39.1654 26.21C39.4465 26.4913 39.6044 26.8726 39.6044 27.2703C39.6044 27.668 39.4465 28.0493 39.1654 28.3306Z" fill="#F32B44"/>
</svg>
