<svg width="48" height="48" viewBox="0 0 48 48" fill="none" xmlns="http://www.w3.org/2000/svg">
<path d="M39 4.875H31.5C31.2016 4.875 30.9155 4.99353 30.7045 5.2045C30.4935 5.41548 30.375 5.70163 30.375 6C30.375 6.29837 30.4935 6.58452 30.7045 6.7955C30.9155 7.00647 31.2016 7.125 31.5 7.125H36.285L30.66 12.7388C29.3368 11.4275 27.7179 10.4535 25.9396 9.89869C24.1613 9.34388 22.2757 9.22455 20.4417 9.55075C18.6076 9.87694 16.8788 10.6391 15.4009 11.7731C13.9229 12.907 12.7392 14.3795 11.9492 16.0666C11.1593 17.7536 10.7864 19.6058 10.8618 21.4671C10.9373 23.3284 11.459 25.1443 12.3829 26.7619C13.3068 28.3794 14.6059 29.7513 16.1708 30.7618C17.7357 31.7724 19.5205 32.3921 21.375 32.5687V36.375H16.5C16.2016 36.375 15.9155 36.4935 15.7045 36.7045C15.4935 36.9155 15.375 37.2016 15.375 37.5C15.375 37.7984 15.4935 38.0845 15.7045 38.2955C15.9155 38.5065 16.2016 38.625 16.5 38.625H21.375V43.5C21.375 43.7984 21.4935 44.0845 21.7045 44.2955C21.9155 44.5065 22.2016 44.625 22.5 44.625C22.7983 44.625 23.0845 44.5065 23.2955 44.2955C23.5065 44.0845 23.625 43.7984 23.625 43.5V38.625H28.5C28.7983 38.625 29.0845 38.5065 29.2955 38.2955C29.5065 38.0845 29.625 37.7984 29.625 37.5C29.625 37.2016 29.5065 36.9155 29.2955 36.7045C29.0845 36.4935 28.7983 36.375 28.5 36.375H23.625V32.5687C25.6311 32.3725 27.5518 31.658 29.1984 30.4954C30.845 29.3327 32.161 27.7619 33.0173 25.9371C33.8735 24.1123 34.2405 22.0962 34.0824 20.0867C33.9242 18.0772 33.2462 16.1434 32.115 14.475L37.875 8.715V13.5C37.875 13.7984 37.9935 14.0845 38.2045 14.2955C38.4155 14.5065 38.7016 14.625 39 14.625C39.2983 14.625 39.5845 14.5065 39.7955 14.2955C40.0065 14.0845 40.125 13.7984 40.125 13.5V6C40.125 5.70163 40.0065 5.41548 39.7955 5.2045C39.5845 4.99353 39.2983 4.875 39 4.875ZM22.5 30.375C20.6458 30.375 18.8332 29.8252 17.2915 28.795C15.7498 27.7649 14.5482 26.3007 13.8386 24.5877C13.129 22.8746 12.9434 20.9896 13.3051 19.171C13.6669 17.3525 14.5597 15.682 15.8709 14.3709C17.182 13.0598 18.8524 12.1669 20.671 11.8051C22.4896 11.4434 24.3746 11.6291 26.0876 12.3386C27.8007 13.0482 29.2649 14.2498 30.295 15.7915C31.3251 17.3332 31.875 19.1458 31.875 21C31.872 23.4855 30.8833 25.8683 29.1258 27.6258C27.3683 29.3833 24.9855 30.372 22.5 30.375Z" fill="#F32B44"/>
</svg>
