<svg width="32" height="44" viewBox="0 0 32 44" fill="none" xmlns="http://www.w3.org/2000/svg">
<path d="M15.9999 20.0125C14.3682 20.0125 12.7732 20.4964 11.4165 21.4029C10.0598 22.3094 9.00235 23.5979 8.37793 25.1054C7.7535 26.6129 7.59012 28.2717 7.90845 29.872C8.22678 31.4724 9.01252 32.9424 10.1663 34.0962C11.3201 35.25 12.7901 36.0357 14.3904 36.354C15.9908 36.6724 17.6496 36.509 19.1571 35.8846C20.6646 35.2601 21.953 34.2027 22.8596 32.846C23.7661 31.4893 24.2499 29.8942 24.2499 28.2625C24.2474 26.0753 23.3775 23.9783 21.8308 22.4317C20.2842 20.885 18.1872 20.015 15.9999 20.0125ZM15.9999 35.0125C14.6649 35.0125 13.3599 34.6167 12.2498 33.875C11.1398 33.1333 10.2746 32.0791 9.76374 30.8457C9.25285 29.6123 9.11918 28.2551 9.37963 26.9457C9.64008 25.6363 10.283 24.4336 11.227 23.4896C12.171 22.5456 13.3737 21.9027 14.6831 21.6422C15.9924 21.3818 17.3496 21.5155 18.583 22.0264C19.8164 22.5373 20.8707 23.4024 21.6123 24.5124C22.354 25.6225 22.7499 26.9275 22.7499 28.2625C22.7499 30.0528 22.0388 31.7696 20.7729 33.0355C19.507 34.3014 17.7901 35.0125 15.9999 35.0125ZM30.8537 23.0125L25.2681 7.22505C24.6337 5.29143 23.4103 3.60475 21.7692 2.40141C20.1281 1.19807 18.1516 0.538382 16.1167 0.514814C14.0819 0.491247 12.0906 1.10498 10.4221 2.26999C8.75355 3.435 7.49136 5.09289 6.81243 7.0113L1.27181 22.6694C0.373951 25.039 0.0611032 27.5903 0.359821 30.1066C0.658539 32.623 1.56 35.0301 2.98768 37.1237C4.41537 39.2172 6.32711 40.9354 8.56063 42.1323C10.7941 43.3292 13.2835 43.9695 15.8173 43.9989C18.3512 44.0283 20.8547 43.4459 23.1154 42.3011C25.3761 41.1563 27.3271 39.483 28.803 37.4231C30.2789 35.3632 31.2359 32.9777 31.5929 30.4689C31.9499 27.9602 31.6963 25.4024 30.8537 23.0125ZM15.9999 42.5125C13.6918 42.5095 11.4189 41.9464 9.37646 40.8714C7.33397 39.7964 5.5829 38.2418 4.27364 36.341C2.96438 34.4401 2.13603 32.2499 1.85975 29.9584C1.58346 27.6669 1.86749 25.3426 2.68743 23.185L8.21868 7.51192C8.79219 5.88493 9.8613 4.47865 11.2756 3.49088C12.69 2.50311 14.3784 1.98355 16.1034 2.00528C17.8283 2.02701 19.5031 2.58894 20.8921 3.61202C22.2811 4.63511 23.3145 6.06787 23.8468 7.7088L29.4381 23.5113C30.1983 25.661 30.4316 27.9617 30.1184 30.2202C29.8051 32.4787 28.9545 34.6291 27.6379 36.4907C26.3213 38.3523 24.5772 39.8708 22.5521 40.9187C20.527 41.9665 18.2801 42.5131 15.9999 42.5125Z" fill="#F32B44"/>
</svg>
