<svg width="36" height="38" viewBox="0 0 36 38" fill="none" xmlns="http://www.w3.org/2000/svg">
<path d="M33 3.5H27.75V1.25C27.75 1.05109 27.671 0.860322 27.5303 0.71967C27.3897 0.579018 27.1989 0.5 27 0.5C26.8011 0.5 26.6103 0.579018 26.4697 0.71967C26.329 0.860322 26.25 1.05109 26.25 1.25V3.5H9.75V1.25C9.75 1.05109 9.67098 0.860322 9.53033 0.71967C9.38968 0.579018 9.19891 0.5 9 0.5C8.80109 0.5 8.61032 0.579018 8.46967 0.71967C8.32902 0.860322 8.25 1.05109 8.25 1.25V3.5H3C2.40326 3.5 1.83097 3.73705 1.40901 4.15901C0.987053 4.58097 0.75 5.15326 0.75 5.75V35.75C0.75 36.3467 0.987053 36.919 1.40901 37.341C1.83097 37.7629 2.40326 38 3 38H33C33.5967 38 34.169 37.7629 34.591 37.341C35.0129 36.919 35.25 36.3467 35.25 35.75V5.75C35.25 5.15326 35.0129 4.58097 34.591 4.15901C34.169 3.73705 33.5967 3.5 33 3.5ZM3 5H8.25V7.25C8.25 7.44891 8.32902 7.63968 8.46967 7.78033C8.61032 7.92098 8.80109 8 9 8C9.19891 8 9.38968 7.92098 9.53033 7.78033C9.67098 7.63968 9.75 7.44891 9.75 7.25V5H26.25V7.25C26.25 7.44891 26.329 7.63968 26.4697 7.78033C26.6103 7.92098 26.8011 8 27 8C27.1989 8 27.3897 7.92098 27.5303 7.78033C27.671 7.63968 27.75 7.44891 27.75 7.25V5H33C33.1989 5 33.3897 5.07902 33.5303 5.21967C33.671 5.36032 33.75 5.55109 33.75 5.75V12.5H2.25V5.75C2.25 5.55109 2.32902 5.36032 2.46967 5.21967C2.61032 5.07902 2.80109 5 3 5ZM33 36.5H3C2.80109 36.5 2.61032 36.421 2.46967 36.2803C2.32902 36.1397 2.25 35.9489 2.25 35.75V14H33.75V35.75C33.75 35.9489 33.671 36.1397 33.5303 36.2803C33.3897 36.421 33.1989 36.5 33 36.5ZM23.25 25.25C23.25 25.4489 23.171 25.6397 23.0303 25.7803C22.8897 25.921 22.6989 26 22.5 26H18.75V29.75C18.75 29.9489 18.671 30.1397 18.5303 30.2803C18.3897 30.421 18.1989 30.5 18 30.5C17.8011 30.5 17.6103 30.421 17.4697 30.2803C17.329 30.1397 17.25 29.9489 17.25 29.75V26H13.5C13.3011 26 13.1103 25.921 12.9697 25.7803C12.829 25.6397 12.75 25.4489 12.75 25.25C12.75 25.0511 12.829 24.8603 12.9697 24.7197C13.1103 24.579 13.3011 24.5 13.5 24.5H17.25V20.75C17.25 20.5511 17.329 20.3603 17.4697 20.2197C17.6103 20.079 17.8011 20 18 20C18.1989 20 18.3897 20.079 18.5303 20.2197C18.671 20.3603 18.75 20.5511 18.75 20.75V24.5H22.5C22.6989 24.5 22.8897 24.579 23.0303 24.7197C23.171 24.8603 23.25 25.0511 23.25 25.25Z" fill="#F32B44"/>
</svg>
