<svg width="36" height="41" viewBox="0 0 36 41" fill="none" xmlns="http://www.w3.org/2000/svg">
<path d="M30.7558 6.49997C29.6481 6.49915 28.5794 6.90861 27.7558 7.64935V4.99997C27.7543 3.83676 27.3024 2.71932 26.4949 1.88204C25.6874 1.04476 24.5871 0.552686 23.4247 0.509032C22.2623 0.465379 21.1281 0.873536 20.2601 1.64789C19.3921 2.42225 18.8577 3.50265 18.7689 4.66247C18.1229 4.08008 17.3219 3.69738 16.463 3.5607C15.604 3.42401 14.7238 3.53919 13.9289 3.89229C13.134 4.2454 12.4585 4.8213 11.9841 5.55031C11.5097 6.27931 11.2567 7.13019 11.2558 7.99997V22.625L9.14641 19.2387C8.55166 18.2039 7.57018 17.4477 6.41789 17.1365C5.2656 16.8253 4.03688 16.9846 3.00203 17.5793C1.96719 18.1741 1.211 19.1556 0.899804 20.3079C0.588611 21.4602 0.74791 22.6889 1.34266 23.7237C7.58828 36.8975 10.9127 41 19.5058 41C23.6816 40.9955 27.685 39.3347 30.6378 36.382C33.5905 33.4292 35.2513 29.4258 35.2558 25.25V11C35.2558 9.8065 34.7817 8.6619 33.9378 7.81799C33.0938 6.97408 31.9493 6.49997 30.7558 6.49997ZM33.7558 25.25C33.7513 29.0279 32.2485 32.6499 29.5771 35.3213C26.9057 37.9927 23.2837 39.4955 19.5058 39.5C12.5139 39.5 9.45766 37.3418 2.68516 23.0543L2.65703 23C2.27085 22.3117 2.17145 21.4989 2.38039 20.7378C2.58932 19.9768 3.08976 19.3287 3.77324 18.934C4.45672 18.5394 5.26819 18.4299 6.03179 18.6295C6.79539 18.829 7.44961 19.3214 7.85266 20C7.85772 20.007 7.86211 20.0146 7.86578 20.0225L11.3683 25.6475C11.4543 25.7863 11.5833 25.8932 11.7356 25.952C11.888 26.0109 12.0554 26.0184 12.2123 25.9734C12.3693 25.9284 12.5074 25.8334 12.6054 25.7029C12.7035 25.5723 12.7563 25.4133 12.7558 25.25V7.99997C12.7558 7.20432 13.0719 6.44126 13.6345 5.87865C14.1971 5.31604 14.9601 4.99997 15.7558 4.99997C16.5514 4.99997 17.3145 5.31604 17.8771 5.87865C18.4397 6.44126 18.7558 7.20432 18.7558 7.99997V19.25C18.7558 19.4489 18.8348 19.6396 18.9755 19.7803C19.1161 19.921 19.3069 20 19.5058 20C19.7047 20 19.8955 19.921 20.0361 19.7803C20.1768 19.6396 20.2558 19.4489 20.2558 19.25V4.99997C20.2558 4.20432 20.5719 3.44126 21.1345 2.87865C21.6971 2.31604 22.4601 1.99997 23.2558 1.99997C24.0514 1.99997 24.8145 2.31604 25.3771 2.87865C25.9397 3.44126 26.2558 4.20432 26.2558 4.99997V19.25C26.2558 19.4489 26.3348 19.6396 26.4755 19.7803C26.6161 19.921 26.8069 20 27.0058 20C27.2047 20 27.3955 19.921 27.5361 19.7803C27.6768 19.6396 27.7558 19.4489 27.7558 19.25V11C27.7558 10.2043 28.0719 9.44126 28.6345 8.87865C29.1971 8.31604 29.9601 7.99997 30.7558 7.99997C31.5514 7.99997 32.3145 8.31604 32.8771 8.87865C33.4397 9.44126 33.7558 10.2043 33.7558 11V25.25Z" fill="#F32B44"/>
</svg>
