<svg width="38" height="39" viewBox="0 0 38 39" fill="none" xmlns="http://www.w3.org/2000/svg">
<path d="M19.1748 0.867432C15.4664 0.867432 11.8413 1.9671 8.75787 4.02738C5.67445 6.08765 3.27121 9.016 1.85207 12.4421C0.432928 15.8682 0.0616163 19.6382 0.785089 23.2754C1.50856 26.9125 3.29433 30.2534 5.91656 32.8757C8.5388 35.4979 11.8797 37.2837 15.5169 38.0072C19.154 38.7306 22.924 38.3593 26.3501 36.9402C29.7762 35.521 32.7046 33.1178 34.7649 30.0344C36.8251 26.951 37.9248 23.3258 37.9248 19.6174C37.9194 14.6463 35.9422 9.88033 32.427 6.36521C28.9119 2.85008 24.1459 0.872891 19.1748 0.867432ZM19.1748 36.8674C15.7631 36.8674 12.428 35.8557 9.59123 33.9603C6.75448 32.0648 4.5435 29.3707 3.23789 26.2187C1.93228 23.0667 1.59067 19.5983 2.25627 16.2521C2.92186 12.906 4.56477 9.8323 6.97722 7.41984C9.38968 5.00738 12.4633 3.36448 15.8095 2.69889C19.1557 2.03329 22.6241 2.3749 25.7761 3.68051C28.9281 4.98612 31.6222 7.1971 33.5177 10.0338C35.4131 12.8706 36.4248 16.2057 36.4248 19.6174C36.4199 24.1909 34.6008 28.5756 31.3669 31.8095C28.133 35.0435 23.7483 36.8625 19.1748 36.8674ZM18.4248 21.1174V10.6174C18.4248 10.4185 18.5038 10.2278 18.6445 10.0871C18.7851 9.94645 18.9759 9.86743 19.1748 9.86743C19.3737 9.86743 19.5645 9.94645 19.7051 10.0871C19.8458 10.2278 19.9248 10.4185 19.9248 10.6174V21.1174C19.9248 21.3163 19.8458 21.5071 19.7051 21.6478C19.5645 21.7884 19.3737 21.8674 19.1748 21.8674C18.9759 21.8674 18.7851 21.7884 18.6445 21.6478C18.5038 21.5071 18.4248 21.3163 18.4248 21.1174ZM20.6748 27.8674C20.6748 28.1641 20.5868 28.4541 20.422 28.7008C20.2572 28.9475 20.0229 29.1397 19.7488 29.2533C19.4747 29.3668 19.1731 29.3965 18.8822 29.3386C18.5912 29.2807 18.3239 29.1379 18.1142 28.9281C17.9044 28.7183 17.7615 28.451 17.7036 28.1601C17.6458 27.8691 17.6755 27.5675 17.789 27.2934C17.9025 27.0193 18.0948 26.785 18.3415 26.6202C18.5881 26.4554 18.8781 26.3674 19.1748 26.3674C19.5726 26.3674 19.9542 26.5255 20.2355 26.8068C20.5168 27.0881 20.6748 27.4696 20.6748 27.8674Z" fill="#F32B44"/>
</svg>
