<svg width="48" height="48" viewBox="0 0 48 48" fill="none" xmlns="http://www.w3.org/2000/svg">
<path d="M35.0401 15.7654C35.1099 15.835 35.1652 15.9178 35.2029 16.0088C35.2407 16.0999 35.2601 16.1975 35.2601 16.296C35.2601 16.3946 35.2407 16.4922 35.2029 16.5832C35.1652 16.6743 35.1099 16.757 35.0401 16.8266L30.5401 21.3266C30.4704 21.3963 30.3877 21.4516 30.2967 21.4893C30.2056 21.527 30.108 21.5464 30.0095 21.5464C29.911 21.5464 29.8134 21.527 29.7223 21.4893C29.6313 21.4516 29.5486 21.3963 29.4789 21.3266C29.4092 21.257 29.3539 21.1742 29.3162 21.0832C29.2785 20.9921 29.2591 20.8946 29.2591 20.796C29.2591 20.6975 29.2785 20.5999 29.3162 20.5088C29.3539 20.4178 29.4092 20.3351 29.4789 20.2654L33.9789 15.7654C34.0485 15.6957 34.1312 15.6403 34.2223 15.6026C34.3133 15.5648 34.4109 15.5454 34.5095 15.5454C34.6081 15.5454 34.7057 15.5648 34.7967 15.6026C34.8878 15.6403 34.9705 15.6957 35.0401 15.7654ZM40.0558 20.811L21.0226 39.8404C19.2844 41.5415 16.9454 42.4884 14.5133 42.4754C12.0812 42.4625 9.75236 41.4908 8.03234 39.7713C6.31233 38.0518 5.33996 35.7232 5.32632 33.2911C5.31268 30.859 6.25888 28.5197 7.9595 26.781L26.9926 7.75164C28.7308 6.05052 31.0699 5.10365 33.502 5.11659C35.9341 5.12953 38.2629 6.10123 39.9829 7.82075C41.7029 9.54028 42.6753 11.8688 42.6889 14.3009C42.7026 16.733 41.7564 19.0723 40.0558 20.811ZM28.9483 29.796L18.0076 18.8573L9.01888 27.8404C7.56806 29.2915 6.7531 31.2594 6.75327 33.3114C6.75345 35.3633 7.56875 37.3311 9.01981 38.782C10.4709 40.2328 12.4388 41.0477 14.4908 41.0475C16.5427 41.0474 18.5106 40.2321 19.9614 38.781L28.9483 29.796ZM38.9964 8.81102C37.545 7.36056 35.577 6.54578 33.5251 6.54578C31.4732 6.54578 29.5053 7.36056 28.0539 8.81102L19.067 17.796L30.0076 28.7348L38.9945 19.7516C40.4428 18.2996 41.2563 16.3326 41.2566 14.2817C41.257 12.2309 40.4442 10.2635 38.9964 8.81102Z" fill="#F32B44"/>
</svg>
