<svg width="32" height="41" viewBox="0 0 32 41" fill="none" xmlns="http://www.w3.org/2000/svg">
<path d="M25.75 6.54312V2.75C25.75 2.15326 25.5129 1.58097 25.091 1.15901C24.669 0.737053 24.0967 0.5 23.5 0.5H8.5C7.90326 0.5 7.33097 0.737053 6.90901 1.15901C6.48705 1.58097 6.25 2.15326 6.25 2.75V6.54312C4.60016 6.72758 3.07616 7.51356 1.96929 8.75083C0.862423 9.9881 0.250327 11.5899 0.25 13.25V34.25C0.25 36.0402 0.961159 37.7571 2.22703 39.023C3.4929 40.2888 5.20979 41 7 41H25C26.7902 41 28.5071 40.2888 29.773 39.023C31.0388 37.7571 31.75 36.0402 31.75 34.25V13.25C31.7497 11.5899 31.1376 9.9881 30.0307 8.75083C28.9238 7.51356 27.3998 6.72758 25.75 6.54312ZM1.75 17H30.25V30.5H1.75V17ZM24.25 2.75V6.5H19.75V2H23.5C23.6989 2 23.8897 2.07902 24.0303 2.21967C24.171 2.36032 24.25 2.55109 24.25 2.75ZM13.75 6.5V2H18.25V6.5H13.75ZM8.5 2H12.25V6.5H7.75V2.75C7.75 2.55109 7.82902 2.36032 7.96967 2.21967C8.11032 2.07902 8.30109 2 8.5 2ZM7 8H25C26.3924 8 27.7277 8.55312 28.7123 9.53769C29.6969 10.5223 30.25 11.8576 30.25 13.25V15.5H1.75V13.25C1.75 11.8576 2.30312 10.5223 3.28769 9.53769C4.27226 8.55312 5.60761 8 7 8ZM25 39.5H7C5.60761 39.5 4.27226 38.9469 3.28769 37.9623C2.30312 36.9777 1.75 35.6424 1.75 34.25V32H30.25V34.25C30.25 35.6424 29.6969 36.9777 28.7123 37.9623C27.7277 38.9469 26.3924 39.5 25 39.5Z" fill="#F32B44"/>
</svg>
