<svg width="32" height="44" viewBox="0 0 32 44" fill="none" xmlns="http://www.w3.org/2000/svg">
<path d="M31.7315 20.5811C31.7036 20.4607 31.6463 20.3492 31.5649 20.2563C31.4835 20.1634 31.3803 20.092 31.2647 20.0486L19.8628 15.7736L22.7372 1.39796C22.7685 1.23827 22.7471 1.07271 22.6761 0.926267C22.6051 0.779825 22.4884 0.660447 22.3436 0.586147C22.1988 0.511848 22.0338 0.486658 21.8735 0.514381C21.7131 0.542104 21.5661 0.621234 21.4547 0.73983L0.454654 23.2398C0.369636 23.3294 0.308039 23.4385 0.27533 23.5576C0.242621 23.6766 0.239813 23.8019 0.267154 23.9223C0.295095 24.0427 0.352333 24.1543 0.433782 24.2472C0.515232 24.3401 0.618369 24.4114 0.734029 24.4548L12.1359 28.7298L9.26715 43.1055C9.23579 43.2651 9.25722 43.4307 9.32821 43.5771C9.3992 43.7236 9.51589 43.843 9.66068 43.9173C9.80547 43.9916 9.9705 44.0168 10.1309 43.989C10.2912 43.9613 10.4382 43.8822 10.5497 43.7636L31.5497 21.2636C31.6337 21.1735 31.6942 21.0641 31.726 20.9451C31.7577 20.826 31.7596 20.701 31.7315 20.5811ZM11.2547 40.8142L13.7372 28.4017C13.7721 28.2271 13.7437 28.0457 13.6571 27.8901C13.5705 27.7345 13.4314 27.6148 13.2647 27.5523L2.31465 23.4442L20.7497 3.68921L18.2672 16.1017C18.2323 16.2763 18.2606 16.4577 18.3472 16.6133C18.4338 16.7689 18.5729 16.8886 18.7397 16.9511L29.6897 21.0592L11.2547 40.8142Z" fill="#F32B44"/>
</svg>
