<svg width="48" height="48" viewBox="0 0 48 48" fill="none" xmlns="http://www.w3.org/2000/svg">
<path d="M46.5 23.25H44.25V16.5C44.25 15.9033 44.0129 15.331 43.591 14.909C43.169 14.4871 42.5967 14.25 42 14.25H38.25V12C38.25 11.4033 38.0129 10.831 37.591 10.409C37.169 9.98705 36.5967 9.75 36 9.75H31.5C30.9033 9.75 30.331 9.98705 29.909 10.409C29.4871 10.831 29.25 11.4033 29.25 12V23.25H18.75V12C18.75 11.4033 18.5129 10.831 18.091 10.409C17.669 9.98705 17.0967 9.75 16.5 9.75H12C11.4033 9.75 10.831 9.98705 10.409 10.409C9.98705 10.831 9.75 11.4033 9.75 12V14.25H6C5.40326 14.25 4.83097 14.4871 4.40901 14.909C3.98705 15.331 3.75 15.9033 3.75 16.5V23.25H1.5C1.30109 23.25 1.11032 23.329 0.96967 23.4697C0.829018 23.6103 0.75 23.8011 0.75 24C0.75 24.1989 0.829018 24.3897 0.96967 24.5303C1.11032 24.671 1.30109 24.75 1.5 24.75H3.75V31.5C3.75 32.0967 3.98705 32.669 4.40901 33.091C4.83097 33.5129 5.40326 33.75 6 33.75H9.75V36C9.75 36.5967 9.98705 37.169 10.409 37.591C10.831 38.0129 11.4033 38.25 12 38.25H16.5C17.0967 38.25 17.669 38.0129 18.091 37.591C18.5129 37.169 18.75 36.5967 18.75 36V24.75H29.25V36C29.25 36.5967 29.4871 37.169 29.909 37.591C30.331 38.0129 30.9033 38.25 31.5 38.25H36C36.5967 38.25 37.169 38.0129 37.591 37.591C38.0129 37.169 38.25 36.5967 38.25 36V33.75H42C42.5967 33.75 43.169 33.5129 43.591 33.091C44.0129 32.669 44.25 32.0967 44.25 31.5V24.75H46.5C46.6989 24.75 46.8897 24.671 47.0303 24.5303C47.171 24.3897 47.25 24.1989 47.25 24C47.25 23.8011 47.171 23.6103 47.0303 23.4697C46.8897 23.329 46.6989 23.25 46.5 23.25ZM6 32.25C5.80109 32.25 5.61032 32.171 5.46967 32.0303C5.32902 31.8897 5.25 31.6989 5.25 31.5V16.5C5.25 16.3011 5.32902 16.1103 5.46967 15.9697C5.61032 15.829 5.80109 15.75 6 15.75H9.75V32.25H6ZM17.25 36C17.25 36.1989 17.171 36.3897 17.0303 36.5303C16.8897 36.671 16.6989 36.75 16.5 36.75H12C11.8011 36.75 11.6103 36.671 11.4697 36.5303C11.329 36.3897 11.25 36.1989 11.25 36V12C11.25 11.8011 11.329 11.6103 11.4697 11.4697C11.6103 11.329 11.8011 11.25 12 11.25H16.5C16.6989 11.25 16.8897 11.329 17.0303 11.4697C17.171 11.6103 17.25 11.8011 17.25 12V36ZM36.75 36C36.75 36.1989 36.671 36.3897 36.5303 36.5303C36.3897 36.671 36.1989 36.75 36 36.75H31.5C31.3011 36.75 31.1103 36.671 30.9697 36.5303C30.829 36.3897 30.75 36.1989 30.75 36V12C30.75 11.8011 30.829 11.6103 30.9697 11.4697C31.1103 11.329 31.3011 11.25 31.5 11.25H36C36.1989 11.25 36.3897 11.329 36.5303 11.4697C36.671 11.6103 36.75 11.8011 36.75 12V36ZM42.75 31.5C42.75 31.6989 42.671 31.8897 42.5303 32.0303C42.3897 32.171 42.1989 32.25 42 32.25H38.25V15.75H42C42.1989 15.75 42.3897 15.829 42.5303 15.9697C42.671 16.1103 42.75 16.3011 42.75 16.5V31.5Z" fill="#F32B44"/>
</svg>
