<svg width="42" height="35" viewBox="0 0 42 35" fill="none" xmlns="http://www.w3.org/2000/svg">
<path d="M10.5 18.5H3C2.80109 18.5 2.61032 18.421 2.46967 18.2803C2.32902 18.1397 2.25 17.9489 2.25 17.75C2.25 17.5511 2.32902 17.3603 2.46967 17.2197C2.61032 17.079 2.80109 17 3 17H10.0988L12.8756 12.8337C12.9441 12.7309 13.0369 12.6465 13.1458 12.5882C13.2548 12.5298 13.3764 12.4993 13.5 12.4993C13.6236 12.4993 13.7452 12.5298 13.8542 12.5882C13.9631 12.6465 14.0559 12.7309 14.1244 12.8337L19.5 20.8962L21.8756 17.3337C21.9442 17.231 22.037 17.1468 22.146 17.0886C22.2549 17.0303 22.3765 16.9999 22.5 17H27C27.1989 17 27.3897 17.079 27.5303 17.2197C27.671 17.3603 27.75 17.5511 27.75 17.75C27.75 17.9489 27.671 18.1397 27.5303 18.2803C27.3897 18.421 27.1989 18.5 27 18.5H22.9012L20.1244 22.6663C20.0559 22.7691 19.9631 22.8535 19.8542 22.9118C19.7452 22.9702 19.6236 23.0007 19.5 23.0007C19.3764 23.0007 19.2548 22.9702 19.1458 22.9118C19.0369 22.8535 18.9441 22.7691 18.8756 22.6663L13.5 14.6019L11.1244 18.1644C11.056 18.2675 10.9633 18.352 10.8543 18.4106C10.7454 18.4692 10.6237 18.4999 10.5 18.5ZM30.375 0.5C26.355 0.5 22.89 2.41063 21 5.57562C19.11 2.41063 15.645 0.5 11.625 0.5C8.74184 0.503473 5.97776 1.65034 3.93905 3.68905C1.90034 5.72776 0.753473 8.49184 0.75 11.375C0.75 11.5075 0.75 11.6406 0.75 11.7744C0.756465 11.9733 0.841682 12.1615 0.986906 12.2976C1.13213 12.4336 1.32546 12.5065 1.52437 12.5C1.72329 12.4935 1.91148 12.4083 2.04757 12.2631C2.18365 12.1179 2.25646 11.9245 2.25 11.7256C2.25 11.6094 2.25 11.4931 2.25 11.375C2.25298 8.88951 3.24165 6.50667 4.99916 4.74916C6.75667 2.99165 9.13951 2.00298 11.625 2C15.5831 2 18.9094 4.12063 20.3063 7.53313C20.3628 7.67068 20.4589 7.78834 20.5824 7.87114C20.7059 7.95394 20.8513 7.99815 21 7.99815C21.1487 7.99815 21.2941 7.95394 21.4176 7.87114C21.5411 7.78834 21.6372 7.67068 21.6937 7.53313C23.0906 4.12063 26.4169 2 30.375 2C32.8605 2.00298 35.2433 2.99165 37.0008 4.74916C38.7583 6.50667 39.747 8.88951 39.75 11.375C39.75 22.25 23.625 31.8987 21 33.3912C19.4119 32.4875 12.8437 28.5894 7.94437 23.2438C7.80888 23.102 7.62324 23.0189 7.42725 23.0124C7.23126 23.0058 7.0405 23.0763 6.89584 23.2087C6.75119 23.3411 6.66414 23.5249 6.65335 23.7207C6.64256 23.9165 6.70889 24.1088 6.83813 24.2562C12.5981 30.5412 20.3194 34.7356 20.6437 34.91C20.7532 34.9691 20.8756 35 21 35C21.1244 35 21.2468 34.9691 21.3562 34.91C24.8637 32.9374 28.1728 30.6311 31.2375 28.0231C37.875 22.3381 41.25 16.7356 41.25 11.375C41.2465 8.49184 40.0997 5.72776 38.0609 3.68905C36.0222 1.65034 33.2582 0.503473 30.375 0.5Z" fill="#F32B44"/>
</svg>
