<svg width="36" height="41" viewBox="0 0 36 41" fill="none" xmlns="http://www.w3.org/2000/svg">
<path d="M18 6.5C14.5883 6.5 11.2532 7.5117 8.41642 9.40715C5.57967 11.3026 3.3687 13.9967 2.06309 17.1487C0.757474 20.3007 0.415867 23.7691 1.08146 27.1153C1.74706 30.4615 3.38996 33.5351 5.80242 35.9476C8.21487 38.36 11.2885 40.003 14.6347 40.6685C17.9809 41.3341 21.4493 40.9925 24.6013 39.6869C27.7533 38.3813 30.4474 36.1703 32.3429 33.3336C34.2383 30.4968 35.25 27.1617 35.25 23.75C35.245 19.1765 33.426 14.7918 30.1921 11.5579C26.9582 8.32396 22.5735 6.50496 18 6.5ZM18 39.5C14.885 39.5 11.8399 38.5763 9.24978 36.8456C6.6597 35.115 4.64099 32.6552 3.44891 29.7773C2.25682 26.8993 1.94492 23.7325 2.55264 20.6773C3.16036 17.6221 4.6604 14.8157 6.86308 12.6131C9.06575 10.4104 11.8721 8.91035 14.9273 8.30263C17.9825 7.69492 21.1493 8.00682 24.0273 9.1989C26.9052 10.391 29.365 12.4097 31.0957 14.9998C32.8263 17.5898 33.75 20.6349 33.75 23.75C33.7455 27.9258 32.0847 31.9293 29.132 34.882C26.1793 37.8347 22.1758 39.4955 18 39.5ZM26.0306 15.7194C26.1004 15.789 26.1557 15.8717 26.1934 15.9628C26.2312 16.0538 26.2506 16.1514 26.2506 16.25C26.2506 16.3486 26.2312 16.4462 26.1934 16.5372C26.1557 16.6283 26.1004 16.711 26.0306 16.7806L18.5306 24.2806C18.4609 24.3503 18.3782 24.4056 18.2872 24.4433C18.1961 24.481 18.0986 24.5004 18 24.5004C17.9015 24.5004 17.8039 24.481 17.7128 24.4433C17.6218 24.4056 17.5391 24.3503 17.4694 24.2806C17.3997 24.2109 17.3444 24.1282 17.3067 24.0372C17.269 23.9461 17.2496 23.8485 17.2496 23.75C17.2496 23.6515 17.269 23.5539 17.3067 23.4628C17.3444 23.3718 17.3997 23.2891 17.4694 23.2194L24.9694 15.7194C25.039 15.6496 25.1218 15.5943 25.2128 15.5566C25.3039 15.5188 25.4014 15.4994 25.5 15.4994C25.5986 15.4994 25.6962 15.5188 25.7872 15.5566C25.8783 15.5943 25.961 15.6496 26.0306 15.7194ZM12.75 1.25C12.75 1.05109 12.829 0.860322 12.9697 0.71967C13.1103 0.579018 13.3011 0.5 13.5 0.5H22.5C22.6989 0.5 22.8897 0.579018 23.0303 0.71967C23.171 0.860322 23.25 1.05109 23.25 1.25C23.25 1.44891 23.171 1.63968 23.0303 1.78033C22.8897 1.92098 22.6989 2 22.5 2H13.5C13.3011 2 13.1103 1.92098 12.9697 1.78033C12.829 1.63968 12.75 1.44891 12.75 1.25Z" fill="#F32B44"/>
</svg>
